HIERARCHY
ROOT Hips
{
  OFFSET 2.26061 22.2878 23.7974
  CHANNELS 6 Xposition Yposition Zposition Zrotation Xrotation Yrotation
  JOINT LeftUpLeg
  {
    OFFSET 8.64259 1.95398 -2.38835
    CHANNELS 3 Zrotation Xrotation Yrotation
    JOINT LeftLeg
    {
      OFFSET 43.7702 0 0
      CHANNELS 3 Zrotation Xrotation Yrotation
      JOINT LeftFoot
      {
        OFFSET 40.6238 0 0
        CHANNELS 3 Zrotation Xrotation Yrotation
        JOINT LeftToeBase
        {
          OFFSET 12.7242 0 0
          CHANNELS 3 Zrotation Xrotation Yrotation
          End Site
          {
            OFFSET 0 0 0
          }
        }
      }
    }
  }
  JOINT RightUpLeg
  {
    OFFSET -8.2249 1.95398 -2.59336
    CHANNELS 3 Zrotation Xrotation Yrotation
    JOINT RightLeg
    {
      OFFSET 43.5653 0 0
      CHANNELS 3 Zrotation Xrotation Yrotation
      JOINT RightFoot
      {
        OFFSET 40.6238 0 0
        CHANNELS 3 Zrotation Xrotation Yrotation
        JOINT RightToeBase
        {
          OFFSET 12.7242 0 0
          CHANNELS 3 Zrotation Xrotation Yrotation
          End Site
          {
            OFFSET 0 0 0
          }
        }
      }
    }
  }
  JOINT Spine
  {
    OFFSET 0.165834 0.87714 6.61349
    CHANNELS 3 Zrotation Xrotation Yrotation
    JOINT Spine1
    {
      OFFSET 7.38963 1.71661e-005 0
      CHANNELS 3 Zrotation Xrotation Yrotation
      JOINT Spine2
      {
        OFFSET 11.9445 1.14441e-005 0
        CHANNELS 3 Zrotation Xrotation Yrotation
        JOINT Spine3
        {
          OFFSET 14.7254 4.19617e-005 0
          CHANNELS 3 Zrotation Xrotation Yrotation
          JOINT Spine4
          {
            OFFSET 10.9679 0 0
            CHANNELS 3 Zrotation Xrotation Yrotation
            JOINT RightShoulder
            {
              OFFSET 2.46616 -1.6653 3.69651
              CHANNELS 3 Zrotation Xrotation Yrotation
              JOINT RightArm
              {
                OFFSET 13.0012 0 0
                CHANNELS 3 Zrotation Xrotation Yrotation
                JOINT RightForeArm
                {
                  OFFSET 28.7848 1.52588e-005 0
                  CHANNELS 3 Zrotation Xrotation Yrotation
                  JOINT RightHand
                  {
                    OFFSET 26.5688 1.52588e-005 0
                    CHANNELS 3 Zrotation Xrotation Yrotation
                    End Site
                    {
                      OFFSET 0 0 0
                    }
                  }
                }
              }
            }
            JOINT LeftShoulder
            {
              OFFSET 2.38034 -1.29275 -3.7523
              CHANNELS 3 Zrotation Xrotation Yrotation
              JOINT LeftArm
              {
                OFFSET 16.3182 6.10351e-005 0
                CHANNELS 3 Zrotation Xrotation Yrotation
                JOINT LeftForeArm
                {
                  OFFSET 27.0901 0 0
                  CHANNELS 3 Zrotation Xrotation Yrotation
                  JOINT LeftHand
                  {
                    OFFSET 24.5451 1.52588e-005 0
                    CHANNELS 3 Zrotation Xrotation Yrotation
                    End Site
                    {
                      OFFSET 0 0 0
                    }
                  }
                }
              }
            }
            JOINT Neck
            {
              OFFSET 5.0226 -0.0266342 0
              CHANNELS 3 Zrotation Xrotation Yrotation
              JOINT Head
              {
                OFFSET 6.69363 2.86102e-005 0
                CHANNELS 3 Zrotation Xrotation Yrotation
                End Site
                {
                  OFFSET 0 0 0
                }
              }
            }
          }
        }
      }
    }
  }
}
MOTION
Frames:	17
Frame Time:	0.0416667
-141.368 89.4572 -128.459 96.2038 -53.774 90.3475 -173.154 30.3109 84.2021 -40.4531 20.2234 -2.22663 60.7844 2.50063 6.02833 29.3036 0.640354 -2.53432 -179.751 11.9952 85.4903 -82.8931 2.09576 -4.81066 34.4529 3.72094 4.24961 28.7503 0.554233 -8.7573 0.537583 7.28564 -88.7438 12.2769 1.66387 2.31926 0.605032 1.76433 2.24382 -21.9164 0.890236 2.71184 -1.90375 0.890249 2.71184 89.6342 -52.664 -100.764 24.4618 -12.7331 7.91721 -10.3422 -32.2487 -47.0816 2.93917 -0.38011 5.59327 -105.416 -54.1455 58.0257 -15.7687 5.1048 3.51883 -0.351251 -1.52617 -35.7321 13.4923 0.706974 1.42525 13.1318 -3.57069 -1.76871 -3.52371 -3.10545 -2.75058 
-134.65 92.8816 -122.781 95.7686 -55.537 94.2089 -173.341 24.4824 87.7742 -39.3046 21.4655 -1.20128 60.0185 1.50486 5.69778 34.7265 4.68577 -0.315166 -177.396 27.431 90.4664 -95.9978 5.54201 -3.1281 36.9815 1.43426 1.83541 28.8911 0.430365 -6.70061 0.291066 7.28068 -89.2519 12.3049 0.933285 1.38822 0.633556 0.993491 1.3458 -21.8965 0.472969 1.60448 -1.88391 0.472997 1.60448 89.3218 -52.7737 -101.202 23.279 -13.0803 13.1665 -17.1597 -37.5332 -51.2089 6.40021 -0.412876 5.32286 -103.383 -53.0029 60.3598 -15.4533 2.29437 -0.145536 7.20054 2.55772 -53.7168 18.5258 1.63849 4.98519 12.5653 -1.46092 -1.91249 -2.35918 -1.03755 -2.109 
-128.597 97.9382 -117.942 102.564 -54.1509 102.405 -175.133 14.4414 89.8663 -33.9837 21.2868 1.28819 47.9679 -7.33696 -2.16427 38.6123 7.70934 0.611303 177.139 35.358 94.3704 -101.232 11.0769 -1.92277 46.0385 -1.79217 -1.12224 31.78 0.405323 -6.46623 -0.0977663 7.82174 -89.665 11.23 -0.0386652 0.672564 -0.441183 -0.00902515 0.673606 -22.9749 -0.23901 0.629852 -2.96224 -0.238994 0.629854 89.1217 -52.3585 -101.595 22.8506 -12.3016 18.9814 -14.514 -35.5754 -48.8408 0.268236 -0.659395 4.38956 -101.133 -51.2638 62.8506 -15.3754 0.661378 -0.404703 9.04084 0.737805 -69.3233 24.8113 1.86259 3.66665 8.34244 0.303435 -1.41404 1.4479 0.545037 -0.281873 
-123.149 102.204 -112.344 103.93 -48.9566 105.188 -176.582 11.8457 91.5814 -35.0087 21.1571 2.73728 38.4327 -11.7398 -10.8678 31.0195 1.04626 9.93073 169.797 40.9988 98.3657 -101.491 3.70432 -1.11653 50.2351 -1.22365 -0.756503 35.1913 0.352506 -4.4333 -0.605513 8.0518 -89.9409 10.7713 -1.17851 0.227329 -0.899133 -1.16736 0.27898 -23.4385 -1.19234 -0.137414 -3.42587 -1.19234 -0.137422 90.0274 -52.1808 -100.286 23.7756 -10.7832 26.5944 -10.3924 -28.4441 -47.2361 -1.14892 -0.563554 2.41002 -97.7401 -47.2571 66.3431 -15.3235 2.67757 -2.20343 10.409 -0.538329 -79.5683 26.9572 1.96815 3.50078 0.70009 0.429179 -1.62538 7.43948 0.655987 0.437681 
-117.853 104.688 -106.98 105.413 -46.3314 107.054 -175.189 10.2916 92.3195 -31.1859 19.863 2.08073 41.8943 -9.63149 -9.04531 32.9512 2.86822 9.35135 169.123 44.3789 100.06 -97.8885 -3.03589 -0.922147 51.5746 -0.304477 -0.147919 38.0913 0.385036 -3.76911 -0.718267 8.13868 -90.0863 10.5969 -1.47011 -0.0388043 -1.07322 -1.4704 0.0259472 -23.6146 -1.39048 -0.478933 -3.60191 -1.39048 -0.478922 90.8238 -49.825 -99.5992 26.7387 -8.68479 34.975 -7.42493 -21.5731 -46.9321 -0.306811 -0.390389 -0.158924 -94.4192 -42.9682 70.008 -14.9375 3.96269 -5.17137 14.6501 -3.51734 -88.1456 17.5175 1.02588 1.91687 -4.67555 -0.094518 -2.45058 11.3671 0.178851 0.683002 
-112.738 105.177 -101.16 105.889 -43.8265 107.12 -172.797 3.52494 92.6653 -8.71597 17.6003 0.60807 38.2466 -10.5351 -10.8885 40.0558 9.42404 9.3616 169.984 44.8518 99.9272 -91.8312 -2.4421 -0.596581 56.5081 -1.62795 -1.05921 32.2509 0.470255 -8.72681 -0.840388 8.2072 -90.0102 10.4613 -1.6788 0.12829 -1.20855 -1.67152 0.202063 -23.7521 -1.63973 -0.382326 -3.73948 -1.63971 -0.38233 91.0231 -49.7623 -99.305 26.7632 -7.16343 40.2348 -7.28007 -19.9417 -46.5044 0.200496 -0.35613 0.87937 -93.3497 -40.4441 70.9063 -10.3062 3.77237 -8.52722 13.3297 -5.33245 -94.9713 15.2911 0.661618 0.468115 -6.60114 -0.776822 -4.3074 11.922 -0.457273 0.496659 
-107.06 102.988 -95.1801 104.355 -40.6001 106.347 -172.669 7.40986 92.4862 -7.51391 13.0143 0.481084 42.131 -10.4095 -7.94582 39.4384 8.95056 11.2014 170.35 43.9427 98.5509 -82.8689 0.839214 0.187032 59.4963 -2.35434 -1.44746 37.0043 0.351128 -7.95177 -1.08746 8.11079 -90.0676 10.6548 -2.19686 0.0654548 -1.01428 -2.19183 0.162115 -23.5636 -2.11491 -0.598123 -3.55099 -2.11491 -0.598124 91.1754 -50.0404 -99.012 24.9165 -6.49764 42.6857 -8.14773 -22.2142 -43.8981 -0.0260648 -0.408653 0.831469 -93.7908 -41.3604 70.4866 -3.65308 1.32993 -12.1669 12.4632 -6.70508 -100.333 13.5091 0.470508 -0.422987 -8.01992 -1.26931 -5.45522 11.872 -0.842031 1.27339 
-101.469 97.6767 -89.723 105.449 -37.8835 108.654 -171.157 10.7931 93.597 -17.9438 9.16576 -0.60432 51.8767 -4.06602 -3.53548 31.1754 1.62274 5.94218 170.886 40.5404 97.8781 -71.3249 1.51436 1.30194 63.4743 -3.09611 -1.80584 39.9767 0.325556 -7.04599 -1.19997 8.19471 -90.1961 10.4826 -2.48021 -0.171173 -1.18597 -2.48534 -0.0617864 -23.738 -2.31405 -0.909058 -3.72533 -2.31404 -0.909065 90.3304 -50.6105 -100.173 22.9466 -6.24425 44.3283 -8.31095 -24.7587 -41.2892 0.573604 -0.437769 2.65496 -93.7362 -42.188 70.8478 0.91837 -2.89002 -16.0882 11.599 -6.67948 -103.287 17.7706 0.879876 1.11618 -7.8278 -1.72879 -6.20364 10.7617 -1.2581 1.43861 
-96.8363 92.4685 -84.097 106.574 -36.2768 107.099 -171.223 17.4187 90.8922 -43.2287 8.05162 -0.533483 65.8174 6.82204 5.60058 30.9581 1.69577 0.105539 173.809 35.8056 94.5548 -53.957 2.04166 0.687234 66.8444 -3.83169 -2.1191 41.8519 0.194989 -9.11073 -1.20202 8.40493 -89.83 10.0746 -2.31787 0.533095 -1.59443 -2.29217 0.634636 -24.1466 -2.37087 -0.188571 -4.13396 -2.37088 -0.188566 90.8456 -52.8986 -98.9227 19.7625 -5.44807 39.7785 -8.51863 -30.0821 -36.8347 3.00389 -0.404145 4.07733 -94.1619 -43.7454 70.6657 3.11042 -6.51815 -19.9341 11.9746 -6.26689 -102.881 17.8176 0.752069 0.363449 -2.15175 -3.27589 -8.14392 5.68529 -2.37225 0.986334 
-91.8632 90.0858 -78.3869 107.332 -38.2787 106.481 -169.412 18.9723 91.3745 -55.7496 8.76881 -0.944066 66.181 8.71127 8.10311 41.6503 10.068 -0.182299 175.197 27.4465 93.9642 -29.0043 1.6912 0.701081 66.659 -3.35677 -1.85012 42.3054 0.40961 -4.94175 -0.828291 8.24481 -89.6735 10.3896 -1.50047 0.780003 -1.2807 -1.46467 0.845286 -23.8224 -1.66549 0.292889 -3.80976 -1.66548 0.292893 92.8445 -51.8242 -96.1286 21.9418 -4.63421 33.6246 -9.20741 -32.2987 -35.7755 -0.0420424 -0.656508 9.3936 -96.4914 -45.8987 67.7603 -0.17167 -6.03196 -16.3794 12.3489 -5.27526 -98.7958 16.4133 0.584742 -0.289375 -5.00858 -4.21764 -7.50866 7.72503 -3.70959 -0.454275 
-86.6945 89.5476 -73.0157 108.111 -40.8484 104.924 -167.1 12.2358 89.9778 -54.5301 4.36905 -2.11969 71.776 14.207 9.99771 43.1402 11.4159 1.72494 174.554 18.7475 93.0673 -8.03576 10.0796 1.80706 65.2455 -3.55865 -2.00589 44.1218 0.337071 -6.24349 -0.629263 8.0946 -89.4829 10.6894 -1.01493 1.11866 -0.981614 -0.96472 1.16224 -23.518 -1.30421 0.761908 -3.50535 -1.30421 0.761909 92.6985 -50.0623 -96.6651 24.5094 -6.50114 30.9974 -11.7514 -34.2783 -40.183 1.57591 -0.569433 5.2761 -96.5253 -48.7607 68.6668 -1.41374 -1.56017 -12.5757 13.9225 -4.91894 -94.1791 17.3559 0.891031 1.27545 -2.9738 -4.51516 -5.72562 5.40145 -4.06085 -0.999213 
-81.4176 89.9231 -67.098 106.353 -42.5327 101.832 -168.749 7.22642 88.3576 -52.8362 2.69742 -1.38905 70.7569 13.2646 10.1137 46.7966 14.6168 3.53356 173.291 18.0994 92.6287 -7.373 21.614 3.46014 68.7773 -3.73218 -2.0029 43.1224 0.20539 -8.3451 -0.661617 7.7778 -89.437 11.3249 -1.05407 1.23 -0.346182 -0.998887 1.27519 -22.8824 -1.37498 0.856355 -2.86971 -1.37499 0.856349 93.7433 -50.0757 -95.0519 23.7878 -8.38619 27.0116 -12.0033 -31.8937 -43.7662 0.893139 -0.575094 3.49574 -97.6407 -50.9316 67.7452 -3.05492 2.09538 -7.68348 13.5641 -4.01563 -87.4649 16.4605 0.85453 1.27472 -2.00673 -4.49791 -2.80467 3.74046 -4.30024 -1.69696 
-76.3229 90.2193 -61.1425 107.086 -45.7068 102.043 -166.568 3.21141 90.6849 -54.0328 3.88755 -2.44624 68.5258 9.89155 6.65002 48.5517 16.7796 7.35612 173.955 15.1475 93.6697 -7.80241 17.2615 3.17564 67.1465 -4.27923 -2.37468 43.6821 0.131563 -9.43124 -0.532732 7.65437 -89.5738 11.5671 -0.860282 0.936321 -0.103967 -0.81823 0.973262 -22.64 -1.1019 0.634479 -2.6273 -1.10189 0.634476 94.1575 -49.5944 -94.488 23.4 -9.17921 22.3674 -11.3338 -31.3733 -44.8763 -4.56561 -0.846363 4.92418 -99.0427 -51.4068 65.8851 -6.26689 4.39619 -2.00342 11.5124 -1.15729 -77.8969 15.0901 0.835574 1.66276 -0.646541 -3.99521 -0.493126 2.35158 -3.99527 -1.59213 
-71.8924 90.8356 -55.421 105.77 -45.2197 101.326 -165.893 2.44982 93.7009 -56.0306 8.80831 -1.79575 61.324 3.66608 2.82396 49.8229 18.4899 10.1156 173.764 18.9259 93.58 -17.8367 9.78686 2.40097 57.0808 -0.150215 0.0802131 38.6718 0.348193 -6.60996 -0.802313 7.43575 -89.8505 12.0064 -1.52475 0.464331 0.336186 -1.50282 0.530994 -22.2061 -1.59378 -0.015497 -2.19349 -1.59378 -0.0155027 92.9564 -49.4816 -96.3718 23.2461 -8.72732 20.5804 -10.0025 -29.6916 -44.2138 -7.90444 -0.944287 4.09188 -100.003 -52.7467 64.9878 -8.48664 8.8326 0.255669 11.0435 2.46372 -65.1997 13.806 0.80456 1.92157 1.46771 -3.1072 3.55831 -1.11832 -3.59723 -2.99714 
-67.9889 91.2038 -50.6537 104.632 -44.8204 101.008 -167.572 4.88757 95.1545 -62.1685 12.7018 -0.307492 56.4873 -0.232492 1.74706 43.3005 12.5827 10.9167 173.042 20.9971 93.8068 -27.4278 7.92622 3.0521 59.0104 -0.177124 0.0384055 31.8679 0.350902 -5.00638 -0.827893 7.33262 -90.0722 12.2097 -1.67969 0.0427394 0.539869 -1.67619 0.116645 -22.0035 -1.61486 -0.464185 -1.99085 -1.61487 -0.464184 94.3239 -50.613 -94.0735 21.6521 -8.77231 16.7722 -8.83631 -29.5786 -43.381 -7.75453 -0.95408 4.37013 -100.995 -53.0548 63.7061 -10.159 12.8828 -2.99308 10.0421 11.4147 -46.915 9.74324 0.861118 4.46145 0.902697 -3.59816 3.30642 -0.666247 -4.00123 -1.38573 
-65.4031 92.5406 -46.567 104.325 -44.5999 100.28 -169.293 7.33674 95.4408 -64.0346 10.9042 0.82643 54.1075 -1.64701 2.05277 42.2712 11.4665 9.49618 173.618 18.3192 94.1242 -27.9518 8.37877 2.29148 61.5236 -1.15247 -0.601663 26.9048 0.434429 -6.47877 -0.755717 7.39046 -90.0622 12.0941 -1.53169 0.0442938 0.42409 -1.52826 0.111672 -22.1179 -1.47418 -0.418191 -2.10526 -1.47417 -0.418194 94.1688 -51.4794 -94.1802 21.4122 -8.70467 13.8348 -8.54229 -29.148 -43.1892 -5.62382 -0.814971 4.08373 -102.285 -53.2915 61.9957 -12.6565 13.4184 -4.55542 3.95557 16.3686 -30.1603 9.41503 1.03415 6.57738 0.836308 -4.23004 3.73249 -0.292856 -4.70596 -2.19017 
-63.0618 93.9476 -43.1459 104.734 -45.6019 99.5808 -170.035 9.19282 95.0822 -62.1692 7.80136 1.04121 53.5447 -2.03801 0.526013 41.0554 10.271 8.51293 173.912 14.7456 93.6998 -26.5305 7.56945 1.50157 63.158 -1.63959 -0.88914 22.9666 0.494947 -6.83298 -0.528404 7.47269 -89.9204 11.9305 -1.01318 0.268384 0.259878 -1.00034 0.312701 -22.2785 -1.04699 -0.0485611 -2.26584 -1.04697 -0.0485588 94.2139 -50.8037 -94.2141 23.328 -9.06295 11.4362 -8.87036 -28.4818 -44.1214 -2.78664 -0.69102 4.62847 -102.48 -53.1883 61.6845 -16.4064 12.6708 -1.35616 1.3904 15.7363 -23.1155 5.27388 0.696413 7.39724 0.0392667 -4.63874 3.5192 0.637753 -5.0844 -2.28998 
